<?xml version="1.0" encoding="utf-8"?>
<svg xmlns="http://www.w3.org/2000/svg" viewBox="0 0 500 500">
  <defs>
    <linearGradient id="coin-gradient" x1="0%" y1="0%" x2="0%" y2="100%">
      <stop offset="0" style="stop-color:#f9aa4b" id="stop12"/>
      <stop offset="1" style="stop-color:#f7931a" id="stop14"/>
    </linearGradient>
    <clipPath id="clip-0">
      <path clip-rule="nonzero" d="M 0.5 0.5 L 3000.5 0.5 L 3000.5 3000.5 L 0.5 3000.5 Z M 0.5 0.5 "/>
    </clipPath>
  </defs>
  <g id="svg2" style="" transform="matrix(499.345917, 0, 0, 499.345917, -297678.629436, -121586.298687)">
    <g transform="matrix(0.015625, 0, 0, 0.015625, 596.135873, 243.492451)" id="g16">
      <path id="coin" d="m 63.0359,39.741 c -4.274,17.143 -21.637,27.576 -38.782,23.301 -17.138,-4.274 -27.571,-21.638 -23.295,-38.78 4.272,-17.145 21.635,-27.579 38.775,-23.305 17.144,4.274 27.576,21.64 23.302,38.784 z" style="fill:url(#coin-gradient)"/>
      <path id="symbol" d="m 46.1009,27.441 c 0.637,-4.258 -2.605,-6.547 -7.038,-8.074 l 1.438,-5.768 -3.511,-0.875 -1.4,5.616 c -0.923,-0.23 -1.871,-0.447 -2.813,-0.662 l 1.41,-5.653 -3.509,-0.875 -1.439,5.766 c -0.764,-0.174 -1.514,-0.346 -2.242,-0.527 l 0.004,-0.018 -4.842,-1.209 -0.934,3.75 c 0,0 2.605,0.597 2.55,0.634 1.422,0.355 1.679,1.296 1.636,2.042 l -1.638,6.571 c 0.098,0.025 0.225,0.061 0.365,0.117 -0.117,-0.029 -0.242,-0.061 -0.371,-0.092 l -2.296,9.205 c -0.174,0.432 -0.615,1.08 -1.609,0.834 0.035,0.051 -2.552,-0.637 -2.552,-0.637 l -1.743,4.019 4.569,1.139 c 0.85,0.213 1.683,0.436 2.503,0.646 l -1.453,5.834 3.507,0.875 1.439,-5.772 c 0.958,0.26 1.888,0.5 2.798,0.726 l -1.434,5.745 3.511,0.875 1.453,-5.823 c 5.987,1.133 10.489,0.676 12.384,-4.739 1.527,-4.36 -0.076,-6.875 -3.226,-8.515 2.294,-0.529 4.022,-2.038 4.483,-5.155 z m -8.022,11.249 c -1.085,4.36 -8.426,2.003 -10.806,1.412 l 1.928,-7.729 c 2.38,0.594 10.012,1.77 8.878,6.317 z m 1.086,-11.312 c -0.99,3.966 -7.1,1.951 -9.082,1.457 l 1.748,-7.01 c 1.982,0.494 8.365,1.416 7.334,5.553 z" style="fill:#ffffff"/>
    </g>
  </g>
  <g id="Layer_2" data-name="Layer 2" transform="matrix(2.491866, 0, 0, 2.488661, 365.384405, 205.591846)" style="">
    <g id="invisible_box" data-name="invisible box">
      <rect width="48" height="48" style="fill-rule: nonzero;" fill="none"/>
    </g>
    <g id="Medical">
      <g>
        <path d="M32,10H21V6h5a2,2,0,0,0,0-4H12a2,2,0,0,0,0,4h5v4H9a2.9,2.9,0,0,0-3,3v8a2.9,2.9,0,0,0,3,3H28v7a2.9,2.9,0,0,0,3,3h8a2.9,2.9,0,0,0,3-3V20A10,10,0,0,0,32,10Zm6,20H32V23a2.9,2.9,0,0,0-3-3H10V14H32a6,6,0,0,1,6,6Z" style="fill-rule: nonzero; fill: rgb(255, 255, 255);"/>
        <path d="M35,36l-3,3.4a3.9,3.9,0,0,0,.4,5.6,4,4,0,0,0,5.2,0,3.9,3.9,0,0,0,.4-5.6Z" style="fill-rule: nonzero; fill: rgb(255, 255, 255);"/>
      </g>
    </g>
  </g>
  <g clip-path="url(#clip-0)" transform="matrix(1, 0, 0, 1, -1061.751847, -1225.464008)"/>
  <path fill="none" stroke-width="10" stroke-linecap="butt" stroke-linejoin="miter" stroke="rgb(13.729858%, 12.159729%, 12.548828%)" stroke-opacity="1" stroke-miterlimit="10" d="M 1938.74 1775.04 L -1061.3 1775.04 L -1061.3 -1224.9 L 1938.74 -1224.9 L 1938.74 1775.04 Z M 1938.74 1775.04" style="stroke-width: 1;"/>
  <path fill-rule="nonzero" fill-opacity="1" d="M 130.508 230.127 C 128.853 230.127 127.198 229.231 125.934 227.436 C 115.045 211.983 100.587 203.473 85.214 203.473 C 69.842 203.473 55.381 211.983 44.494 227.436 C 41.968 231.02 37.869 231.026 35.345 227.436 C 32.816 223.852 32.816 218.034 35.345 214.448 C 48.674 195.524 66.385 185.103 85.214 185.103 C 104.044 185.103 121.753 195.524 135.084 214.448 C 137.612 218.034 137.612 223.852 135.084 227.436 C 133.822 229.231 132.164 230.127 130.508 230.127" style="stroke-width: 1; fill: rgb(255, 255, 255);"/>
  <path fill-rule="nonzero" fill-opacity="1" d="M 113.957 248.764 C 112.299 248.764 110.643 247.868 109.382 246.075 C 96.054 227.163 74.373 227.163 61.047 246.075 C 58.519 249.659 54.421 249.659 51.896 246.075 C 49.368 242.491 49.368 236.671 51.896 233.084 C 70.268 207.005 100.16 207.005 118.531 233.084 C 121.06 236.671 121.06 242.491 118.531 246.075 C 117.27 247.868 115.613 248.764 113.957 248.764" style="stroke-width: 1; fill: rgb(255, 255, 255);"/>
  <path fill-rule="nonzero" fill-opacity="1" d="M 96.71 266.947 C 95.056 266.947 93.399 266.05 92.138 264.258 C 88.317 258.84 82.108 258.84 78.293 264.258 C 75.767 267.848 71.666 267.848 69.141 264.258 C 66.613 260.672 66.613 254.855 69.141 251.268 C 78.003 238.687 92.423 238.687 101.287 251.268 C 103.814 254.855 103.814 260.672 101.287 264.258 C 100.023 266.05 98.367 266.947 96.71 266.947" style="stroke-width: 1; fill: rgb(255, 255, 255);"/>
  <path fill-rule="nonzero" fill-opacity="1" d="M 91.684 279.469 C 91.684 284.461 88.788 288.512 85.214 288.512 C 81.641 288.512 78.743 284.461 78.743 279.469 C 78.743 274.471 81.641 270.423 85.214 270.423 C 88.788 270.423 91.684 274.471 91.684 279.469" style="stroke-width: 1; fill: rgb(255, 255, 255);"/>
</svg>