<?xml version="1.0" encoding="utf-8"?>
<svg xmlns="http://www.w3.org/2000/svg" viewBox="0 0 684.415 139.01">
  <defs>
    <linearGradient id="coin-gradient" x1="0%" y1="0%" x2="0%" y2="100%">
      <stop offset="0" style="stop-color:#f9aa4b" id="stop12"/>
      <stop offset="1" style="stop-color:#f7931a" id="stop14"/>
    </linearGradient>
  </defs>
  <g id="svg2" style="" transform="matrix(140.363815, 0, 0, 136.940689, -83675.149684, -33343.066903)">
    <path id="coin" d="M 597.121 244.113 C 597.054 244.381 596.783 244.544 596.515 244.477 C 596.247 244.411 596.084 244.139 596.151 243.872 C 596.218 243.604 596.489 243.441 596.757 243.507 C 597.025 243.574 597.188 243.846 597.121 244.113 Z" style="fill: url(&quot;#coin-gradient&quot;); stroke-width: 0.016;"/>
    <path id="symbol" d="M 596.856 243.921 C 596.866 243.855 596.815 243.819 596.746 243.795 L 596.769 243.705 L 596.714 243.691 L 596.692 243.779 C 596.678 243.775 596.663 243.772 596.648 243.769 L 596.67 243.68 L 596.615 243.667 L 596.593 243.757 C 596.581 243.754 596.569 243.751 596.558 243.749 L 596.558 243.748 L 596.482 243.729 L 596.468 243.788 C 596.468 243.788 596.508 243.797 596.507 243.798 C 596.53 243.803 596.534 243.818 596.533 243.83 L 596.507 243.932 C 596.509 243.933 596.511 243.933 596.513 243.934 C 596.511 243.934 596.509 243.933 596.507 243.933 L 596.471 244.077 C 596.469 244.083 596.462 244.094 596.446 244.09 C 596.447 244.09 596.406 244.08 596.406 244.08 L 596.379 244.143 L 596.45 244.16 C 596.464 244.164 596.477 244.167 596.49 244.17 L 596.467 244.262 L 596.522 244.275 L 596.544 244.185 C 596.559 244.189 596.574 244.193 596.588 244.196 L 596.565 244.286 L 596.62 244.3 L 596.643 244.209 C 596.737 244.227 596.807 244.219 596.837 244.135 C 596.86 244.067 596.835 244.027 596.786 244.002 C 596.822 243.993 596.849 243.97 596.856 243.921 L 596.856 243.921 Z M 596.731 244.097 C 596.714 244.165 596.599 244.128 596.562 244.119 L 596.592 243.998 C 596.629 244.008 596.749 244.026 596.731 244.097 Z M 596.748 243.92 C 596.732 243.982 596.637 243.951 596.606 243.943 L 596.633 243.833 C 596.664 243.841 596.764 243.856 596.748 243.92 L 596.748 243.92 Z" style="fill: rgb(255, 255, 255); stroke-width: 0.016;"/>
  </g>
  <g id="Layer_2" data-name="Layer 2" transform="matrix(0.700452, 0, 0, 0.68249, 103.68036, 57.177781)" style="">
    <path d="M32,10H21V6h5a2,2,0,0,0,0-4H12a2,2,0,0,0,0,4h5v4H9a2.9,2.9,0,0,0-3,3v8a2.9,2.9,0,0,0,3,3H28v7a2.9,2.9,0,0,0,3,3h8a2.9,2.9,0,0,0,3-3V20A10,10,0,0,0,32,10Zm6,20H32V23a2.9,2.9,0,0,0-3-3H10V14H32a6,6,0,0,1,6,6Z" style="fill-rule: nonzero; fill: rgb(255, 255, 255);"/>
    <path d="M35,36l-3,3.4a3.9,3.9,0,0,0,.4,5.6,4,4,0,0,0,5.2,0,3.9,3.9,0,0,0,.4-5.6Z" style="fill-rule: nonzero; fill: rgb(255, 255, 255);"/>
  </g>
  <g transform="matrix(1.118309, 0, 0, 1.091036, 0.864724, 0.174354)" style="">
    <path fill-rule="nonzero" fill-opacity="1" d="M 32.901 58.414 C 32.485 58.414 32.069 58.189 31.751 57.738 C 29.014 53.853 25.38 51.714 21.516 51.714 C 17.652 51.714 14.017 53.853 11.281 57.738 C 10.646 58.638 9.615 58.64 8.981 57.738 C 8.345 56.837 8.345 55.374 8.981 54.473 C 12.331 49.716 16.783 47.097 21.516 47.097 C 26.249 47.097 30.7 49.716 34.051 54.473 C 34.686 55.374 34.686 56.837 34.051 57.738 C 33.734 58.189 33.317 58.414 32.901 58.414" style="stroke-width: 1; fill: rgb(255, 255, 255);"/>
    <path fill-rule="nonzero" fill-opacity="1" d="M 28.741 63.099 C 28.324 63.099 27.908 62.873 27.591 62.423 C 24.241 57.669 18.791 57.669 15.441 62.423 C 14.806 63.324 13.776 63.324 13.141 62.423 C 12.506 61.522 12.506 60.059 13.141 59.157 C 17.759 52.602 25.273 52.602 29.89 59.157 C 30.526 60.059 30.526 61.522 29.89 62.423 C 29.573 62.873 29.157 63.099 28.741 63.099" style="stroke-width: 1; fill: rgb(255, 255, 255);"/>
    <path fill-rule="nonzero" fill-opacity="1" d="M 24.405 67.669 C 23.99 67.669 23.573 67.444 23.256 66.993 C 22.296 65.631 20.735 65.631 19.776 66.993 C 19.141 67.895 18.11 67.895 17.476 66.993 C 16.84 66.092 16.84 64.63 17.476 63.728 C 19.703 60.566 23.328 60.566 25.556 63.728 C 26.191 64.63 26.191 66.092 25.556 66.993 C 25.238 67.444 24.822 67.669 24.405 67.669" style="stroke-width: 1; fill: rgb(255, 255, 255);"/>
    <path fill-rule="nonzero" fill-opacity="1" d="M 23.142 70.817 C 23.142 72.071 22.414 73.09 21.516 73.09 C 20.618 73.09 19.889 72.071 19.889 70.817 C 19.889 69.56 20.618 68.543 21.516 68.543 C 22.414 68.543 23.142 69.56 23.142 70.817" style="stroke-width: 1; fill: rgb(255, 255, 255);"/>
  </g>
  <path d="M 196.552 113.817 C 190.996 113.817 185.301 113.585 179.467 113.122 C 173.634 112.659 168.356 111.918 163.633 110.9 L 185.856 17.841 C 191.135 16.823 196.667 16.129 202.455 15.758 C 208.242 15.387 213.543 15.202 218.357 15.202 C 223.913 15.202 228.705 15.781 232.733 16.938 C 236.761 18.096 240.048 19.647 242.595 21.592 C 245.141 23.536 247.039 25.828 248.29 28.467 C 249.539 31.106 250.164 33.907 250.164 36.87 C 250.164 38.907 249.955 41.037 249.539 43.259 C 249.122 45.481 248.289 47.681 247.038 49.857 C 245.789 52.033 244.076 54.093 241.9 56.037 C 239.724 57.981 236.877 59.741 233.358 61.315 C 237.525 63.167 240.581 65.69 242.524 68.884 C 244.469 72.079 245.441 75.621 245.441 79.511 C 245.441 83.955 244.562 88.238 242.803 92.358 C 241.044 96.478 238.219 100.136 234.33 103.331 C 230.441 106.525 225.395 109.071 219.191 110.97 C 212.987 112.868 205.44 113.817 196.552 113.817 Z M 194.606 70.483 L 188.634 95.483 C 190.116 95.761 191.991 95.969 194.259 96.108 C 196.528 96.246 198.635 96.316 200.579 96.316 C 203.357 96.316 206.112 96.108 208.843 95.692 C 211.575 95.275 214.029 94.511 216.205 93.4 C 218.381 92.289 220.164 90.76 221.553 88.816 C 222.941 86.871 223.636 84.371 223.636 81.316 C 223.636 80.02 223.381 78.723 222.871 77.427 C 222.362 76.13 221.552 74.973 220.441 73.955 C 219.33 72.936 217.872 72.103 216.066 71.454 C 214.26 70.806 212.107 70.483 209.607 70.483 L 194.606 70.483 Z M 198.635 54.232 L 212.246 54.232 C 217.802 54.232 221.946 53.028 224.678 50.62 C 227.409 48.212 228.774 45.342 228.774 42.01 C 228.774 40.25 228.381 38.745 227.593 37.495 C 226.807 36.245 225.765 35.25 224.468 34.508 C 223.172 33.768 221.691 33.235 220.024 32.911 C 218.357 32.587 216.644 32.425 214.885 32.425 C 212.94 32.425 210.857 32.495 208.635 32.634 C 206.413 32.773 204.746 32.935 203.634 33.119 L 198.635 54.232 Z M 343.766 16.314 L 339.322 34.508 L 311.126 34.508 L 292.375 112.567 L 270.708 112.567 L 289.458 34.508 L 261.263 34.508 L 265.708 16.314 L 343.766 16.314 Z M 407.512 108.4 C 403.716 110.252 399.503 111.734 394.873 112.845 C 390.243 113.956 384.595 114.511 377.929 114.511 C 372.187 114.511 366.932 113.562 362.164 111.664 C 357.395 109.766 353.321 107.057 349.94 103.539 C 346.561 100.02 343.945 95.738 342.093 90.691 C 340.241 85.644 339.315 79.973 339.315 73.677 C 339.315 66.455 340.589 59.278 343.135 52.148 C 345.681 45.018 349.432 38.652 354.386 33.05 C 359.34 27.449 365.405 22.888 372.581 19.369 C 379.757 15.851 388.021 14.092 397.374 14.092 C 401.818 14.092 406.193 14.601 410.498 15.62 C 414.804 16.638 419.318 18.443 424.04 21.036 L 416.262 37.843 C 412.374 35.805 408.901 34.416 405.845 33.676 C 402.79 32.935 399.503 32.564 395.985 32.564 C 390.706 32.564 385.961 33.629 381.748 35.759 C 377.534 37.889 373.923 40.782 370.914 44.44 C 367.904 48.097 365.613 52.333 364.039 57.149 C 362.465 61.963 361.677 67.056 361.677 72.427 C 361.677 80.575 363.46 86.501 367.025 90.205 C 370.59 93.909 375.706 95.76 382.372 95.76 C 386.817 95.76 390.915 95.297 394.665 94.372 C 398.414 93.446 401.91 92.242 405.151 90.76 L 407.512 108.4 Z M 546.818 16.314 L 542.373 34.508 L 514.178 34.508 L 495.427 112.567 L 473.76 112.567 L 492.51 34.508 L 464.316 34.508 L 468.759 16.314 L 546.818 16.314 Z M 595.152 81.038 C 593.856 86.316 593.486 91.617 594.042 96.941 C 594.597 102.266 595.661 107.011 597.236 111.178 L 578.763 113.817 C 578.208 112.706 577.698 111.641 577.235 110.623 C 576.772 109.604 576.309 108.446 575.846 107.15 C 573.253 109.28 570.383 111.039 567.234 112.428 C 564.086 113.817 560.568 114.511 556.678 114.511 C 552.049 114.511 548.09 113.701 544.803 112.08 C 541.517 110.46 538.832 108.284 536.748 105.553 C 534.665 102.821 533.16 99.626 532.234 95.969 C 531.308 92.312 530.845 88.4 530.845 84.233 C 530.845 77.844 531.979 71.825 534.247 66.177 C 536.516 60.528 539.665 55.598 543.693 51.385 C 547.72 47.171 552.466 43.861 557.929 41.453 C 563.392 39.046 569.318 37.843 575.707 37.843 C 576.54 37.843 577.999 37.889 580.082 37.981 C 582.166 38.073 584.55 38.282 587.235 38.606 C 589.921 38.93 592.745 39.463 595.708 40.203 C 598.671 40.944 601.495 41.963 604.18 43.259 L 595.152 81.038 Z M 580.708 55.481 C 579.503 55.297 578.415 55.158 577.443 55.065 C 576.471 54.972 575.291 54.926 573.902 54.926 C 570.753 54.926 567.813 55.713 565.082 57.288 C 562.35 58.861 559.966 60.921 557.929 63.468 C 555.892 66.014 554.294 68.954 553.137 72.288 C 551.98 75.621 551.401 79.094 551.401 82.705 C 551.401 87.149 552.142 90.668 553.623 93.261 C 555.105 95.853 557.837 97.149 561.818 97.149 C 563.947 97.149 565.869 96.733 567.582 95.9 C 569.295 95.066 571.124 93.678 573.069 91.733 C 573.253 89.418 573.554 86.987 573.971 84.441 C 574.388 81.895 574.828 79.557 575.291 77.427 L 580.708 55.481 Z M 632.655 96.455 C 634.229 96.825 636.174 97.01 638.489 97.01 C 642.1 97.01 645.387 96.339 648.351 94.997 C 651.313 93.654 653.836 91.779 655.919 89.371 C 658.003 86.964 659.623 84.071 660.781 80.69 C 661.938 77.311 662.517 73.584 662.517 69.51 C 662.517 65.529 661.637 62.149 659.878 59.371 C 658.119 56.593 655.063 55.204 650.711 55.204 C 647.748 55.204 644.971 55.482 642.377 56.037 L 632.655 96.455 Z M 683.074 67.982 C 683.074 74.742 681.963 80.923 679.741 86.524 C 677.518 92.126 674.439 96.964 670.503 101.039 C 666.568 105.113 661.846 108.284 656.337 110.552 C 650.827 112.821 644.831 113.956 638.35 113.956 C 635.202 113.956 632.054 113.678 628.905 113.122 L 622.655 138.262 L 602.098 138.262 L 625.155 42.147 C 628.859 41.037 633.095 40.041 637.863 39.161 C 642.633 38.282 647.795 37.843 653.351 37.843 C 658.536 37.843 663.003 38.63 666.754 40.203 C 670.504 41.778 673.582 43.93 675.99 46.661 C 678.398 49.393 680.18 52.588 681.338 56.246 C 682.495 59.903 683.074 63.815 683.074 67.982 Z" style="fill: rgb(255, 214, 0); text-wrap-mode: nowrap; stroke-width: 1;"/>
</svg>