<?xml version="1.0" encoding="utf-8"?>
<svg xmlns="http://www.w3.org/2000/svg" viewBox="0 0 651.869 138.844">
  <defs>
    <linearGradient id="coin-gradient" x1="0%" y1="0%" x2="0%" y2="100%">
      <stop offset="0" style="stop-color:#f9aa4b" id="stop12"/>
      <stop offset="1" style="stop-color:#f7931a" id="stop14"/>
    </linearGradient>
  </defs>
  <g id="svg2" style="" transform="matrix(114.277061, 0, 0, 114.277061, -68123.290078, -27824.29143)">
    <path id="coin" d="M 597.121 244.113 C 597.054 244.381 596.783 244.544 596.515 244.477 C 596.247 244.411 596.084 244.139 596.151 243.872 C 596.218 243.604 596.489 243.441 596.757 243.507 C 597.025 243.574 597.188 243.846 597.121 244.113 Z" style="fill: url(&quot;#coin-gradient&quot;); stroke-width: 0.016;"/>
    <path id="symbol" d="M 596.856 243.921 C 596.866 243.855 596.815 243.819 596.746 243.795 L 596.769 243.705 L 596.714 243.691 L 596.692 243.779 C 596.678 243.775 596.663 243.772 596.648 243.769 L 596.67 243.68 L 596.615 243.667 L 596.593 243.757 C 596.581 243.754 596.569 243.751 596.558 243.749 L 596.558 243.748 L 596.482 243.729 L 596.468 243.788 C 596.468 243.788 596.508 243.797 596.507 243.798 C 596.53 243.803 596.534 243.818 596.533 243.83 L 596.507 243.932 C 596.509 243.933 596.511 243.933 596.513 243.934 C 596.511 243.934 596.509 243.933 596.507 243.933 L 596.471 244.077 C 596.469 244.083 596.462 244.094 596.446 244.09 C 596.447 244.09 596.406 244.08 596.406 244.08 L 596.379 244.143 L 596.45 244.16 C 596.464 244.164 596.477 244.167 596.49 244.17 L 596.467 244.262 L 596.522 244.275 L 596.544 244.185 C 596.559 244.189 596.574 244.193 596.588 244.196 L 596.565 244.286 L 596.62 244.3 L 596.643 244.209 C 596.737 244.227 596.807 244.219 596.837 244.135 C 596.86 244.067 596.835 244.027 596.786 244.002 C 596.822 243.993 596.849 243.97 596.856 243.921 L 596.856 243.921 Z M 596.731 244.097 C 596.714 244.165 596.599 244.128 596.562 244.119 L 596.592 243.998 C 596.629 244.008 596.749 244.026 596.731 244.097 Z M 596.748 243.92 C 596.732 243.982 596.637 243.951 596.606 243.943 L 596.633 243.833 C 596.664 243.841 596.764 243.856 596.748 243.92 L 596.748 243.92 Z" style="fill: rgb(255, 255, 255); stroke-width: 0.016;"/>
  </g>
  <g id="Layer_2" data-name="Layer 2" transform="matrix(0.570272, 0, 0, 0.569538, 85.167581, 48.227185)" style="">
    <path d="M32,10H21V6h5a2,2,0,0,0,0-4H12a2,2,0,0,0,0,4h5v4H9a2.9,2.9,0,0,0-3,3v8a2.9,2.9,0,0,0,3,3H28v7a2.9,2.9,0,0,0,3,3h8a2.9,2.9,0,0,0,3-3V20A10,10,0,0,0,32,10Zm6,20H32V23a2.9,2.9,0,0,0-3-3H10V14H32a6,6,0,0,1,6,6Z" style="fill-rule: nonzero; fill: rgb(255, 255, 255);"/>
    <path d="M35,36l-3,3.4a3.9,3.9,0,0,0,.4,5.6,4,4,0,0,0,5.2,0,3.9,3.9,0,0,0,.4-5.6Z" style="fill-rule: nonzero; fill: rgb(255, 255, 255);"/>
  </g>
  <g transform="matrix(0.91047, 0, 0, 0.91047, 1.460329, 0.657803)" style="">
    <path fill-rule="nonzero" fill-opacity="1" d="M 32.901 58.414 C 32.485 58.414 32.069 58.189 31.751 57.738 C 29.014 53.853 25.38 51.714 21.516 51.714 C 17.652 51.714 14.017 53.853 11.281 57.738 C 10.646 58.638 9.615 58.64 8.981 57.738 C 8.345 56.837 8.345 55.374 8.981 54.473 C 12.331 49.716 16.783 47.097 21.516 47.097 C 26.249 47.097 30.7 49.716 34.051 54.473 C 34.686 55.374 34.686 56.837 34.051 57.738 C 33.734 58.189 33.317 58.414 32.901 58.414" style="stroke-width: 1; fill: rgb(255, 255, 255);"/>
    <path fill-rule="nonzero" fill-opacity="1" d="M 28.741 63.099 C 28.324 63.099 27.908 62.873 27.591 62.423 C 24.241 57.669 18.791 57.669 15.441 62.423 C 14.806 63.324 13.776 63.324 13.141 62.423 C 12.506 61.522 12.506 60.059 13.141 59.157 C 17.759 52.602 25.273 52.602 29.89 59.157 C 30.526 60.059 30.526 61.522 29.89 62.423 C 29.573 62.873 29.157 63.099 28.741 63.099" style="stroke-width: 1; fill: rgb(255, 255, 255);"/>
    <path fill-rule="nonzero" fill-opacity="1" d="M 24.405 67.669 C 23.99 67.669 23.573 67.444 23.256 66.993 C 22.296 65.631 20.735 65.631 19.776 66.993 C 19.141 67.895 18.11 67.895 17.476 66.993 C 16.84 66.092 16.84 64.63 17.476 63.728 C 19.703 60.566 23.328 60.566 25.556 63.728 C 26.191 64.63 26.191 66.092 25.556 66.993 C 25.238 67.444 24.822 67.669 24.405 67.669" style="stroke-width: 1; fill: rgb(255, 255, 255);"/>
    <path fill-rule="nonzero" fill-opacity="1" d="M 23.142 70.817 C 23.142 72.071 22.414 73.09 21.516 73.09 C 20.618 73.09 19.889 72.071 19.889 70.817 C 19.889 69.56 20.618 68.543 21.516 68.543 C 22.414 68.543 23.142 69.56 23.142 70.817" style="stroke-width: 1; fill: rgb(255, 255, 255);"/>
  </g>
  <path d="M 164.211 111.428 C 158.655 111.428 152.96 111.196 147.126 110.733 C 141.293 110.27 136.015 109.529 131.292 108.511 L 153.515 15.452 C 158.794 14.434 164.326 13.74 170.114 13.369 C 175.901 12.998 181.202 12.813 186.016 12.813 C 191.572 12.813 196.364 13.392 200.392 14.549 C 204.42 15.707 207.707 17.258 210.254 19.203 C 212.8 21.147 214.698 23.439 215.949 26.078 C 217.198 28.717 217.823 31.518 217.823 34.481 C 217.823 36.518 217.614 38.648 217.198 40.87 C 216.781 43.092 215.948 45.292 214.697 47.468 C 213.448 49.644 211.735 51.704 209.559 53.648 C 207.383 55.592 204.536 57.352 201.017 58.926 C 205.184 60.778 208.24 63.301 210.183 66.495 C 212.128 69.69 213.1 73.232 213.1 77.122 C 213.1 81.566 212.221 85.849 210.462 89.969 C 208.703 94.089 205.878 97.747 201.989 100.942 C 198.1 104.136 193.054 106.682 186.85 108.581 C 180.646 110.479 173.099 111.428 164.211 111.428 Z M 162.265 68.094 L 156.293 93.094 C 157.775 93.372 159.65 93.58 161.918 93.719 C 164.187 93.857 166.294 93.927 168.238 93.927 C 171.016 93.927 173.771 93.719 176.502 93.303 C 179.234 92.886 181.688 92.122 183.864 91.011 C 186.04 89.9 187.823 88.371 189.212 86.427 C 190.6 84.482 191.295 81.982 191.295 78.927 C 191.295 77.631 191.04 76.334 190.53 75.038 C 190.021 73.741 189.211 72.584 188.1 71.566 C 186.989 70.547 185.531 69.714 183.725 69.065 C 181.919 68.417 179.766 68.094 177.266 68.094 L 162.265 68.094 Z M 166.294 51.843 L 179.905 51.843 C 185.461 51.843 189.605 50.639 192.337 48.231 C 195.068 45.823 196.433 42.953 196.433 39.621 C 196.433 37.861 196.04 36.356 195.252 35.106 C 194.466 33.856 193.424 32.861 192.127 32.119 C 190.831 31.379 189.35 30.846 187.683 30.522 C 186.016 30.198 184.303 30.036 182.544 30.036 C 180.599 30.036 178.516 30.106 176.294 30.245 C 174.072 30.384 172.405 30.546 171.293 30.73 L 166.294 51.843 Z M 311.425 13.925 L 306.981 32.119 L 278.785 32.119 L 260.034 110.178 L 238.367 110.178 L 257.117 32.119 L 228.922 32.119 L 233.367 13.925 L 311.425 13.925 Z M 375.171 106.011 C 371.375 107.863 367.162 109.345 362.532 110.456 C 357.902 111.567 352.254 112.122 345.588 112.122 C 339.846 112.122 334.591 111.173 329.823 109.275 C 325.054 107.377 320.98 104.668 317.599 101.15 C 314.22 97.631 311.604 93.349 309.752 88.302 C 307.9 83.255 306.974 77.584 306.974 71.288 C 306.974 64.066 308.248 56.889 310.794 49.759 C 313.34 42.629 317.091 36.263 322.045 30.661 C 326.999 25.06 333.064 20.499 340.24 16.98 C 347.416 13.462 355.68 11.703 365.033 11.703 C 369.477 11.703 373.852 12.212 378.157 13.231 C 382.463 14.249 386.977 16.054 391.699 18.647 L 383.921 35.454 C 380.033 33.416 376.56 32.027 373.504 31.287 C 370.449 30.546 367.162 30.175 363.644 30.175 C 358.365 30.175 353.62 31.24 349.407 33.37 C 345.193 35.5 341.582 38.393 338.573 42.051 C 335.563 45.708 333.272 49.944 331.698 54.76 C 330.124 59.574 329.336 64.667 329.336 70.038 C 329.336 78.186 331.119 84.112 334.684 87.816 C 338.249 91.52 343.365 93.371 350.031 93.371 C 354.476 93.371 358.574 92.908 362.324 91.983 C 366.073 91.057 369.569 89.853 372.81 88.371 L 375.171 106.011 Z M 514.477 13.925 L 510.032 32.119 L 481.837 32.119 L 463.086 110.178 L 441.419 110.178 L 460.169 32.119 L 431.975 32.119 L 436.418 13.925 L 514.477 13.925 Z M 562.811 78.649 C 561.515 83.927 561.145 89.228 561.701 94.552 C 562.256 99.877 563.32 104.622 564.895 108.789 L 546.422 111.428 C 545.867 110.317 545.357 109.252 544.894 108.234 C 544.431 107.215 543.968 106.057 543.505 104.761 C 540.912 106.891 538.042 108.65 534.893 110.039 C 531.745 111.428 528.227 112.122 524.337 112.122 C 519.708 112.122 515.749 111.312 512.462 109.691 C 509.176 108.071 506.491 105.895 504.407 103.164 C 502.324 100.432 500.819 97.237 499.893 93.58 C 498.967 89.923 498.504 86.011 498.504 81.844 C 498.504 75.455 499.638 69.436 501.906 63.788 C 504.175 58.139 507.324 53.209 511.352 48.996 C 515.379 44.782 520.125 41.472 525.588 39.064 C 531.051 36.657 536.977 35.454 543.366 35.454 C 544.199 35.454 545.658 35.5 547.741 35.592 C 549.825 35.684 552.209 35.893 554.894 36.217 C 557.58 36.541 560.404 37.074 563.367 37.814 C 566.33 38.555 569.154 39.574 571.839 40.87 L 562.811 78.649 Z M 548.367 53.092 C 547.162 52.908 546.074 52.769 545.102 52.676 C 544.13 52.583 542.95 52.537 541.561 52.537 C 538.412 52.537 535.472 53.324 532.741 54.899 C 530.009 56.472 527.625 58.532 525.588 61.079 C 523.551 63.625 521.953 66.565 520.796 69.899 C 519.639 73.232 519.06 76.705 519.06 80.316 C 519.06 84.76 519.801 88.279 521.282 90.872 C 522.764 93.464 525.496 94.76 529.477 94.76 C 531.606 94.76 533.528 94.344 535.241 93.511 C 536.954 92.677 538.783 91.289 540.728 89.344 C 540.912 87.029 541.213 84.598 541.63 82.052 C 542.047 79.506 542.487 77.168 542.95 75.038 L 548.367 53.092 Z M 600.314 94.066 C 601.888 94.436 603.833 94.621 606.148 94.621 C 609.759 94.621 613.046 93.95 616.01 92.608 C 618.972 91.265 621.495 89.39 623.578 86.982 C 625.662 84.575 627.282 81.682 628.44 78.301 C 629.597 74.922 630.176 71.195 630.176 67.121 C 630.176 63.14 629.296 59.76 627.537 56.982 C 625.778 54.204 622.722 52.815 618.37 52.815 C 615.407 52.815 612.63 53.093 610.036 53.648 L 600.314 94.066 Z M 650.733 65.593 C 650.733 72.353 649.622 78.534 647.4 84.135 C 645.177 89.737 642.098 94.575 638.162 98.65 C 634.227 102.724 629.505 105.895 623.996 108.163 C 618.486 110.432 612.49 111.567 606.009 111.567 C 602.861 111.567 599.713 111.289 596.564 110.733 L 590.314 135.873 L 569.757 135.873 L 592.814 39.758 C 596.518 38.648 600.754 37.652 605.522 36.772 C 610.292 35.893 615.454 35.454 621.01 35.454 C 626.195 35.454 630.662 36.241 634.413 37.814 C 638.163 39.389 641.241 41.541 643.649 44.272 C 646.057 47.004 647.839 50.199 648.997 53.857 C 650.154 57.514 650.733 61.426 650.733 65.593 Z" style="fill: rgb(255, 214, 0); text-wrap-mode: nowrap;"/>
</svg>