<?xml version="1.0" encoding="utf-8"?>
<svg xmlns="http://www.w3.org/2000/svg" viewBox="0 0 126.166 126.632">
  <defs>
    <linearGradient id="coin-gradient" x1="0%" y1="0%" x2="0%" y2="100%">
      <stop offset="0" style="stop-color:#f9aa4b" id="stop12"/>
      <stop offset="1" style="stop-color:#f7931a" id="stop14"/>
    </linearGradient>
  </defs>
  <g id="svg2" style="" transform="matrix(125.514412, 0, 0, 125.514412, -74823.70424, -30561.07858)">
    <path id="coin" d="M 597.121 244.113 C 597.054 244.381 596.783 244.544 596.515 244.477 C 596.247 244.411 596.084 244.139 596.151 243.872 C 596.218 243.604 596.489 243.441 596.757 243.507 C 597.025 243.574 597.188 243.846 597.121 244.113 Z" style="fill: url(&quot;#coin-gradient&quot;); stroke-width: 0.016;"/>
    <path id="symbol" d="M 596.856 243.921 C 596.866 243.855 596.815 243.819 596.746 243.795 L 596.769 243.705 L 596.714 243.691 L 596.692 243.779 C 596.678 243.775 596.663 243.772 596.648 243.769 L 596.67 243.68 L 596.615 243.667 L 596.593 243.757 C 596.581 243.754 596.569 243.751 596.558 243.749 L 596.558 243.748 L 596.482 243.729 L 596.468 243.788 C 596.468 243.788 596.508 243.797 596.507 243.798 C 596.53 243.803 596.534 243.818 596.533 243.83 L 596.507 243.932 C 596.509 243.933 596.511 243.933 596.513 243.934 C 596.511 243.934 596.509 243.933 596.507 243.933 L 596.471 244.077 C 596.469 244.083 596.462 244.094 596.446 244.09 C 596.447 244.09 596.406 244.08 596.406 244.08 L 596.379 244.143 L 596.45 244.16 C 596.464 244.164 596.477 244.167 596.49 244.17 L 596.467 244.262 L 596.522 244.275 L 596.544 244.185 C 596.559 244.189 596.574 244.193 596.588 244.196 L 596.565 244.286 L 596.62 244.3 L 596.643 244.209 C 596.737 244.227 596.807 244.219 596.837 244.135 C 596.86 244.067 596.835 244.027 596.786 244.002 C 596.822 243.993 596.849 243.97 596.856 243.921 L 596.856 243.921 Z M 596.731 244.097 C 596.714 244.165 596.599 244.128 596.562 244.119 L 596.592 243.998 C 596.629 244.008 596.749 244.026 596.731 244.097 Z M 596.748 243.92 C 596.732 243.982 596.637 243.951 596.606 243.943 L 596.633 243.833 C 596.664 243.841 596.764 243.856 596.748 243.92 L 596.748 243.92 Z" style="fill: rgb(255, 255, 255); stroke-width: 0.016;"/>
  </g>
  <g id="Layer_2" data-name="Layer 2" transform="matrix(0.62635, 0, 0, 0.625544, 91.938554, 52.247044)" style="">
    <path d="M32,10H21V6h5a2,2,0,0,0,0-4H12a2,2,0,0,0,0,4h5v4H9a2.9,2.9,0,0,0-3,3v8a2.9,2.9,0,0,0,3,3H28v7a2.9,2.9,0,0,0,3,3h8a2.9,2.9,0,0,0,3-3V20A10,10,0,0,0,32,10Zm6,20H32V23a2.9,2.9,0,0,0-3-3H10V14H32a6,6,0,0,1,6,6Z" style="fill-rule: nonzero; fill: rgb(255, 255, 255);"/>
    <path d="M35,36l-3,3.4a3.9,3.9,0,0,0,.4,5.6,4,4,0,0,0,5.2,0,3.9,3.9,0,0,0,.4-5.6Z" style="fill-rule: nonzero; fill: rgb(255, 255, 255);"/>
  </g>
  <g>
    <path fill-rule="nonzero" fill-opacity="1" d="M 32.901 58.414 C 32.485 58.414 32.069 58.189 31.751 57.738 C 29.014 53.853 25.38 51.714 21.516 51.714 C 17.652 51.714 14.017 53.853 11.281 57.738 C 10.646 58.638 9.615 58.64 8.981 57.738 C 8.345 56.837 8.345 55.374 8.981 54.473 C 12.331 49.716 16.783 47.097 21.516 47.097 C 26.249 47.097 30.7 49.716 34.051 54.473 C 34.686 55.374 34.686 56.837 34.051 57.738 C 33.734 58.189 33.317 58.414 32.901 58.414" style="stroke-width: 1; fill: rgb(255, 255, 255);"/>
    <path fill-rule="nonzero" fill-opacity="1" d="M 28.741 63.099 C 28.324 63.099 27.908 62.873 27.591 62.423 C 24.241 57.669 18.791 57.669 15.441 62.423 C 14.806 63.324 13.776 63.324 13.141 62.423 C 12.506 61.522 12.506 60.059 13.141 59.157 C 17.759 52.602 25.273 52.602 29.89 59.157 C 30.526 60.059 30.526 61.522 29.89 62.423 C 29.573 62.873 29.157 63.099 28.741 63.099" style="stroke-width: 1; fill: rgb(255, 255, 255);"/>
    <path fill-rule="nonzero" fill-opacity="1" d="M 24.405 67.669 C 23.99 67.669 23.573 67.444 23.256 66.993 C 22.296 65.631 20.735 65.631 19.776 66.993 C 19.141 67.895 18.11 67.895 17.476 66.993 C 16.84 66.092 16.84 64.63 17.476 63.728 C 19.703 60.566 23.328 60.566 25.556 63.728 C 26.191 64.63 26.191 66.092 25.556 66.993 C 25.238 67.444 24.822 67.669 24.405 67.669" style="stroke-width: 1; fill: rgb(255, 255, 255);"/>
    <path fill-rule="nonzero" fill-opacity="1" d="M 23.142 70.817 C 23.142 72.071 22.414 73.09 21.516 73.09 C 20.618 73.09 19.889 72.071 19.889 70.817 C 19.889 69.56 20.618 68.543 21.516 68.543 C 22.414 68.543 23.142 69.56 23.142 70.817" style="stroke-width: 1; fill: rgb(255, 255, 255);"/>
  </g>
</svg>